<?xml version="1.0" encoding="UTF-8"?>
<svg version="1.1" xmlns="http://www.w3.org/2000/svg" width="128" height="128">
<path d="M0 0 C42.24 0 84.48 0 128 0 C128 42.24 128 84.48 128 128 C85.76 128 43.52 128 0 128 C0 85.76 0 43.52 0 0 Z " fill="#35316E" transform="translate(0,0)"/>
<path d="M0 0 C17.16 0 34.32 0 52 0 C52 17.16 52 34.32 52 52 C34.84 52 17.68 52 0 52 C0 34.84 0 17.68 0 0 Z " fill="#FBC472" transform="translate(68,68)"/>
<path d="M0 0 C17.16 0 34.32 0 52 0 C52 17.16 52 34.32 52 52 C34.84 52 17.68 52 0 52 C0 34.84 0 17.68 0 0 Z " fill="#FC65A2" transform="translate(68,8)"/>
<path d="M0 0 C17.16 0 34.32 0 52 0 C52 17.16 52 34.32 52 52 C34.84 52 17.68 52 0 52 C0 34.84 0 17.68 0 0 Z " fill="#62A1FC" transform="translate(8,8)"/>
<path d="M0 0 C9.24 0 18.48 0 28 0 C28 1.32 28 2.64 28 4 C30.64 4 33.28 4 36 4 C36 2.68 36 1.36 36 0 C41.28 0 46.56 0 52 0 C52 17.16 52 34.32 52 52 C34.84 52 17.68 52 0 52 C0 34.84 0 17.68 0 0 Z " fill="#595594" transform="translate(8,68)"/>
<path d="M0 0 C42.24 0 84.48 0 128 0 C128 42.24 128 84.48 128 128 C85.76 128 43.52 128 0 128 C0 85.76 0 43.52 0 0 Z M4 4 C4 43.6 4 83.2 4 124 C43.6 124 83.2 124 124 124 C124 84.4 124 44.8 124 4 C84.4 4 44.8 4 4 4 Z " fill="#FAFAFC" transform="translate(0,0)"/>
<path d="M0 0 C5.28 0 10.56 0 16 0 C16 1.32 16 2.64 16 4 C17.32 4 18.64 4 20 4 C20 7.96 20 11.92 20 16 C21.32 16 22.64 16 24 16 C24 17.32 24 18.64 24 20 C25.32 20 26.64 20 28 20 C28 23.96 28 27.92 28 32 C26.68 32 25.36 32 24 32 C24 33.32 24 34.64 24 36 C22.68 36 21.36 36 20 36 C20 37.32 20 38.64 20 40 C12.08 40 4.16 40 -4 40 C-4 28.12 -4 16.24 -4 4 C-2.68 4 -1.36 4 0 4 C0 2.68 0 1.36 0 0 Z " fill="#322F6F" transform="translate(24,12)"/>
<path d="M0 0 C2.64 0 5.28 0 8 0 C8 9.24 8 18.48 8 28 C9.32 28 10.64 28 12 28 C12 29.32 12 30.64 12 32 C14.64 32 17.28 32 20 32 C20 30.68 20 29.36 20 28 C21.32 28 22.64 28 24 28 C24 18.76 24 9.52 24 0 C26.64 0 29.28 0 32 0 C32 10.56 32 21.12 32 32 C30.68 32 29.36 32 28 32 C28 33.32 28 34.64 28 36 C26.68 36 25.36 36 24 36 C24 37.32 24 38.64 24 40 C18.72 40 13.44 40 8 40 C8 38.68 8 37.36 8 36 C6.68 36 5.36 36 4 36 C4 34.68 4 33.36 4 32 C2.68 32 1.36 32 0 32 C0 21.44 0 10.88 0 0 Z " fill="#35306C" transform="translate(80,72)"/>
<path d="M0 0 C7.92 0 15.84 0 24 0 C24 2.64 24 5.28 24 8 C21.36 8 18.72 8 16 8 C16 18.56 16 29.12 16 40 C13.36 40 10.72 40 8 40 C8 29.44 8 18.88 8 8 C5.36 8 2.72 8 0 8 C0 5.36 0 2.72 0 0 Z " fill="#352E6D" transform="translate(84,12)"/>
<path d="M0 0 C6.6 0 13.2 0 20 0 C20 6.6 20 13.2 20 20 C13.4 20 6.8 20 0 20 C0 13.4 0 6.8 0 0 Z " fill="#524E8C" transform="translate(12,72)"/>
<path d="M0 0 C9.24 0 18.48 0 28 0 C28 9.24 28 18.48 28 28 C18.76 28 9.52 28 0 28 C0 18.76 0 9.52 0 0 Z M4 4 C4 10.6 4 17.2 4 24 C10.6 24 17.2 24 24 24 C24 17.4 24 10.8 24 4 C17.4 4 10.8 4 4 4 Z " fill="#E4EEF8" transform="translate(8,68)"/>
<path d="M0 0 C1.32 0 2.64 0 4 0 C4 7.92 4 15.84 4 24 C-5.24 24 -14.48 24 -24 24 C-24 22.68 -24 21.36 -24 20 C-21.36 20 -18.72 20 -16 20 C-16 18.68 -16 17.36 -16 16 C-14.68 16 -13.36 16 -12 16 C-12 14.68 -12 13.36 -12 12 C-10.68 12 -9.36 12 -8 12 C-8 10.68 -8 9.36 -8 8 C-6.68 8 -5.36 8 -4 8 C-4 6.68 -4 5.36 -4 4 C-2.68 4 -1.36 4 0 4 C0 2.68 0 1.36 0 0 Z " fill="#6683F9" transform="translate(56,36)"/>
<path d="M0 0 C1.32 0 2.64 0 4 0 C4 6.6 4 13.2 4 20 C-3.92 20 -11.84 20 -20 20 C-20 18.68 -20 17.36 -20 16 C-18.68 16 -17.36 16 -16 16 C-16 14.68 -16 13.36 -16 12 C-14.68 12 -13.36 12 -12 12 C-12 10.68 -12 9.36 -12 8 C-9.36 8 -6.72 8 -4 8 C-4 6.68 -4 5.36 -4 4 C-2.68 4 -1.36 4 0 4 C0 2.68 0 1.36 0 0 Z " fill="#E74083" transform="translate(116,40)"/>
<path d="M0 0 C1.32 0 2.64 0 4 0 C4 5.28 4 10.56 4 16 C-5.24 16 -14.48 16 -24 16 C-24 14.68 -24 13.36 -24 12 C-20.04 12 -16.08 12 -12 12 C-12 10.68 -12 9.36 -12 8 C-9.36 8 -6.72 8 -4 8 C-4 6.68 -4 5.36 -4 4 C-2.68 4 -1.36 4 0 4 C0 2.68 0 1.36 0 0 Z " fill="#FBAF4E" transform="translate(116,104)"/>
<path d="M0 0 C3.96 0 7.92 0 12 0 C12 1.32 12 2.64 12 4 C13.32 4 14.64 4 16 4 C16 5.32 16 6.64 16 8 C14.68 8 13.36 8 12 8 C12 9.32 12 10.64 12 12 C8.04 12 4.08 12 0 12 C0 8.04 0 4.08 0 0 Z " fill="#61A0FA" transform="translate(28,32)"/>
<path d="M0 0 C3.96 0 7.92 0 12 0 C12 2.64 12 5.28 12 8 C10.68 8 9.36 8 8 8 C8 9.32 8 10.64 8 12 C6.68 12 5.36 12 4 12 C4 10.68 4 9.36 4 8 C2.68 8 1.36 8 0 8 C0 5.36 0 2.72 0 0 Z " fill="#33306E" transform="translate(36,84)"/>
<path d="M0 0 C2.64 0 5.28 0 8 0 C8 2.64 8 5.28 8 8 C5.36 8 2.72 8 0 8 C0 5.36 0 2.72 0 0 Z " fill="#35316F" transform="translate(12,84)"/>
<path d="M0 0 C1.32 0 2.64 0 4 0 C4 2.64 4 5.28 4 8 C2.68 8 1.36 8 0 8 C0 5.36 0 2.72 0 0 Z " fill="#454180" transform="translate(40,88)"/>
<path d="M0 0 C2.64 0 5.28 0 8 0 C8 1.32 8 2.64 8 4 C5.36 4 2.72 4 0 4 C0 2.68 0 1.36 0 0 Z " fill="#34306F" transform="translate(36,76)"/>
<path d="M0 0 C2.64 0 5.28 0 8 0 C8 1.32 8 2.64 8 4 C5.36 4 2.72 4 0 4 C0 2.68 0 1.36 0 0 Z " fill="#609DF6" transform="translate(28,20)"/>
</svg>
